<?xml version="1.0" encoding="utf-8"?>
<!-- Generator: Adobe Illustrator 27.8.1, SVG Export Plug-In . SVG Version: 6.00 Build 0)  -->
<svg version="1.1" id="Layer_1" xmlns="http://www.w3.org/2000/svg" xmlns:xlink="http://www.w3.org/1999/xlink" x="0px" y="0px"
	 viewBox="0 0 5970.1 1361.7" style="enable-background:new 0 0 5970.1 1361.7;" xml:space="preserve">
<style type="text/css">
	.st0{stroke:#FFFFFF;stroke-miterlimit:10;}
	.st1{fill:url(#SVGID_1_);}
	.st2{fill:url(#SVGID_00000157302244165743753840000002830973460823977868_);}
	.st3{fill:url(#SVGID_00000032625115073736871310000004076327336505362587_);}
	.st4{fill:url(#SVGID_00000028286635404798494820000009868283382695595156_);}
	.st5{fill:url(#SVGID_00000124146178415955965130000007736370001966082469_);}
	.st6{fill:url(#SVGID_00000003825010413081736800000006574010988925013436_);}
</style>
<g>
	<g>
		<path class="st0" d="M1917.4,412H1841c-6.7,0-11.2,4.5-12.7,8.2L1684.6,742h-5.2l-143.7-321.8c-1.5-3.7-6-8.2-12.7-8.2h-76.3
			c-11.2,0-17.2,9.7-12.7,19.5l231.2,503.6c2.2,4.5,6,8.2,12.7,8.2h7.5c6.7,0,10.5-3.7,12.7-8.2l232-503.6
			C1934.6,421.7,1928.6,412,1917.4,412z"/>
		<path class="st0" d="M2195.9,412h-69.6c-7.5,0-14.2,6.7-14.2,14.2v495.4c0,7.5,6.7,14.2,14.2,14.2h69.6c7.5,0,14.2-6.7,14.2-14.2
			V426.2C2210.1,418.7,2203.3,412,2195.9,412z"/>
		<path class="st0" d="M2731.8,412h-327c-8.2,0-14.2,6.7-14.2,14.2v61.3c0,7.5,6,14.2,14.2,14.2h114.5v419.8
			c0,7.5,6.7,14.2,14.2,14.2h69.6c7.5,0,14.2-6.7,14.2-14.2V501.7h114.5c8.2,0,14.2-6.7,14.2-14.2v-61.3
			C2746,418.7,2740,412,2731.8,412z"/>
		<path class="st0" d="M3317.8,572.9c0-89-73.3-160.9-163.1-160.9h-214c-8.2,0-14.2,6.7-14.2,14.2v495.4c0,7.5,6,14.2,14.2,14.2
			h68.8c7.5,0,14.2-6.7,14.2-14.2V730.8h83l99.5,198.3c1.5,3,5.2,6.7,12,6.7h78.6c12.7,0,18-12,12.7-21.7L3207,724
			C3272.1,697.8,3317.8,641.7,3317.8,572.9z M3146.4,650.7h-122V501.8h122c39.7,0,74.1,32.9,74.1,72.6
			C3220.5,616.3,3186.1,650.7,3146.4,650.7z"/>
		<path class="st0" d="M3900.8,412h-71.1c-8.2,0-14.2,6.7-14.2,14.2V733c0,62.9-44.2,113-109.2,113c-65.1,0-108.5-50.1-108.5-113.7
			v-306c0-7.5-6-14.2-14.2-14.2h-71.1c-7.5,0-14.2,6.7-14.2,14.2v311.3c0,113.7,90.5,205.8,208,205.8c118.2,0,208.8-92,208.8-205.8
			V426.3C3915,418.7,3908.3,412,3900.8,412z"/>
		<path class="st0" d="M4580.4,412h-76.3c-6.7,0-11.2,4.5-12.7,8.2L4347.7,742h-5.2l-143.7-321.8c-1.5-3.7-6-8.2-12.7-8.2h-76.3
			c-11.2,0-17.2,9.7-12.7,19.5l231.2,503.6c2.2,4.5,6,8.2,12.7,8.2h7.5c6.7,0,10.5-3.7,12.7-8.2l232-503.6
			C4597.6,421.7,4591.6,412,4580.4,412z"/>
		<path class="st0" d="M5093.9,412h-304.6c-8.2,0-14.2,6.7-14.2,14.2v495.4c0,7.5,6,14.2,14.2,14.2h304.6c8.2,0,14.2-6.7,14.2-14.2
			v-61.4c0-7.5-6-14.2-14.2-14.2h-221.5V715h184.8c7.5,0,14.2-6,14.2-14.2v-62.1c0-7.5-6.7-14.2-14.2-14.2h-184.8V501.8h221.5
			c8.2,0,14.2-6.7,14.2-14.2v-61.3C5108.1,418.7,5102.1,412,5093.9,412z"/>
		<path class="st0" d="M5535.7,404.5c-149.6,0-268.6,120.5-268.6,270.1c0,149.7,119,268.6,268.6,268.6
			c149.7,0,269.4-119,269.4-268.6S5685.3,404.5,5535.7,404.5z M5535.7,846c-94.3,0-171.4-77.1-171.4-171.4s77.1-172.8,171.4-172.8
			s172.1,78.6,172.1,172.8C5707.8,768.9,5630,846,5535.7,846z"/>
	</g>
</g>
<g>
	
		<radialGradient id="SVGID_1_" cx="-70.7956" cy="4769.2427" r="2249.8572" gradientTransform="matrix(1 0 0 -1 0 6204.7266)" gradientUnits="userSpaceOnUse">
		<stop  offset="0" style="stop-color:#FF00FF"/>
		<stop  offset="1" style="stop-color:#00FFFF"/>
	</radialGradient>
	<path class="st1" d="M964.5,590.7c5.3-9.3-5.9-19.2-14.4-12.7L544.9,886.3c-3.9,3-5,8.4-2.6,12.7l113.3,196.7
		c3.8,6.5,13.2,6.5,17,0L856.3,778L964.5,590.7z"/>
	
		<radialGradient id="SVGID_00000094583967070733977280000001320550929717689261_" cx="-70.7956" cy="4769.2427" r="2249.8572" gradientTransform="matrix(1 0 0 -1 0 6204.7266)" gradientUnits="userSpaceOnUse">
		<stop  offset="0" style="stop-color:#FF00FF"/>
		<stop  offset="1" style="stop-color:#00FFFF"/>
	</radialGradient>
	<path style="fill:url(#SVGID_00000094583967070733977280000001320550929717689261_);" d="M598,446.4H297.4
		c-7.5,0-12.2,8.2-8.5,14.7l183,317h0.7c4.1,7.2,14.8,6.3,17.7-1.5l116.8-317C609.5,453.2,604.8,446.4,598,446.4z"/>
	
		<radialGradient id="SVGID_00000108271629745700888280000013446498734204200616_" cx="-70.7956" cy="4769.2427" r="2249.8572" gradientTransform="matrix(1 0 0 -1 0 6204.7266)" gradientUnits="userSpaceOnUse">
		<stop  offset="0" style="stop-color:#FF00FF"/>
		<stop  offset="1" style="stop-color:#00FFFF"/>
	</radialGradient>
	<path style="fill:url(#SVGID_00000108271629745700888280000013446498734204200616_);" d="M664.2,372.8h422.6
		c-94.2-131.7-248.4-217.6-422.6-217.6s-328.4,85.9-422.6,217.6H664.2z"/>
	
		<radialGradient id="SVGID_00000116932669033654364880000000758432163761759412_" cx="-70.7956" cy="4769.2427" r="2249.8572" gradientTransform="matrix(1 0 0 -1 0 6204.7266)" gradientUnits="userSpaceOnUse">
		<stop  offset="0" style="stop-color:#FF00FF"/>
		<stop  offset="1" style="stop-color:#00FFFF"/>
	</radialGradient>
	<path style="fill:url(#SVGID_00000116932669033654364880000000758432163761759412_);" d="M1131.1,446.9L919.5,814.7l-218,377.8
		c269.4-19.1,482.1-243.6,482.1-517.9C1183.6,592.9,1164.7,515.7,1131.1,446.9z"/>
	
		<radialGradient id="SVGID_00000155859222926148541880000013356595298949417356_" cx="-70.7956" cy="4769.2427" r="2249.8572" gradientTransform="matrix(1 0 0 -1 0 6204.7266)" gradientUnits="userSpaceOnUse">
		<stop  offset="0" style="stop-color:#FF00FF"/>
		<stop  offset="1" style="stop-color:#00FFFF"/>
	</radialGradient>
	<path style="fill:url(#SVGID_00000155859222926148541880000013356595298949417356_);" d="M409.5,814.8L197.2,446.9
		c-33.6,68.8-52.5,146-52.5,227.7c0,274.6,213.1,499.2,482.8,518L409.5,814.8z"/>
	
		<radialGradient id="SVGID_00000111184759993536671930000008287562627827117228_" cx="-70.7956" cy="4769.2427" r="2249.8572" gradientTransform="matrix(1 0 0 -1 0 6204.7266)" gradientUnits="userSpaceOnUse">
		<stop  offset="0" style="stop-color:#FF00FF"/>
		<stop  offset="1" style="stop-color:#00FFFF"/>
	</radialGradient>
	<path style="fill:url(#SVGID_00000111184759993536671930000008287562627827117228_);" d="M973.2,446.4H696c-4.1,0-7.8,2.6-9.2,6.4
		L579.2,745.9c-3.4,9.2,7.3,17.1,15.1,11.2L979.1,464C986.6,458.3,982.6,446.4,973.2,446.4z"/>
</g>
</svg>
